<mxfile host="app.diagrams.net" modified="2024-01-11T07:17:47.264Z" agent="Mozilla/5.0 (Macintosh; Intel Mac OS X 10_15_7) AppleWebKit/605.1.15 (KHTML, like Gecko) Version/17.1.2 Safari/605.1.15" version="22.1.18" etag="J6US1R_TKbWTkIOZ-66f" type="github">
  <diagram name="第 1 页" id="wr6hobt2YzvbJPPbkB5t">
    <mxGraphModel>
      <root>
        <mxCell id="0" />
        <mxCell id="1" parent="0" />
      </root>
    </mxGraphModel>
  </diagram>
</mxfile>
